# xmcd CD database file
#
# Track frame offsets:
#	150
#	12979
#	39092
#	68217
#	86883
#	104738
#	126559
#	143913
#	157658
#	183015
#
# Disc length: 2711 seconds
#
# Revision: 0
# Processed by: cddbd v1.5PL3 Copyright (c) Steve Scherf et al.
# Submitted via: CDex 1.50
#
DISCID=810a950a
DTITLE=Diverse - Jazz Ballads - After midnight 2
DYEAR=2001
DGENRE=Jazz
TTITLE0=Jan Andersen - Man of the world
TTITLE1=Donald Harrison - Close the door
TTITLE2=Charles Famborough - Don Quixote
TTITLE3=Charles Famborough - Dolores Carla Maria 
TTITLE4=Savoy Brown - Baby please
TTITLE5=Larry Coryell - Before dawn
TTITLE6=Ernie Watts - Rituals of spring
TTITLE7=Larry Coryell - Try a little tenderness
TTITLE8=Steve Laury - Lullaby for Laura
TTITLE9=Flora Purim - Waiting for Angela 
EXTD=YEAR: 2001
EXTT0=
EXTT1=
EXTT2=
EXTT3=
EXTT4=
EXTT5=
EXTT6=
EXTT7=
EXTT8=
EXTT9=
PLAYORDER=
